<svg xmlns="http://www.w3.org/2000/svg" viewBox="0 0 128 128">
  <defs>
    <linearGradient id="bg" x1="0" y1="0" x2="1" y2="1">
      <stop offset="0%" stop-color="#1a1a2e"/>
      <stop offset="100%" stop-color="#16213e"/>
    </linearGradient>
  </defs>
  <!-- Rounded background -->
  <rect width="128" height="128" rx="24" fill="url(#bg)"/>
  <!-- Left curly brace { — bolder, tighter for small-size readability -->
  <path d="M 50 24 C 36 24, 30 32, 30 44 L 30 54 C 30 60, 26 64, 18 64 C 26 64, 30 68, 30 74 L 30 84 C 30 96, 36 104, 50 104"
        fill="none" stroke="#4ec9b0" stroke-width="9" stroke-linecap="round" stroke-linejoin="round"/>
  <!-- Right curly brace } -->
  <path d="M 78 24 C 92 24, 98 32, 98 44 L 98 54 C 98 60, 102 64, 110 64 C 102 64, 98 68, 98 74 L 98 84 C 98 96, 92 104, 78 104"
        fill="none" stroke="#569cd6" stroke-width="9" stroke-linecap="round" stroke-linejoin="round"/>
</svg>
